<svg id="Foreground" xmlns="http://www.w3.org/2000/svg" viewBox="0 0 435.7 89"><defs><style>.cls-1{fill:#fff;}</style></defs><title>svs-logo-white-nopadding</title><path class="cls-1" d="M32.9,27.2c-2.2-3.2-6.2-4.7-10.3-4.7-4.8,0-9.7,2.2-9.7,7.6,0,11.8,28,5.1,28,26.1,0,12.7-10,18.8-21.6,18.8C12,75,4.8,72.7,0,67l7.9-7.7a14,14,0,0,0,11.7,6.2c4.8,0,10.3-2.7,10.3-8.1,0-12.9-28-5.5-28-26.5,0-12.2,10.8-17.8,21.7-17.8,6.2,0,12.3,1.7,16.9,6.1Z"/><path class="cls-1" d="M42.2,14.6H54.3L70.4,59.1,87,14.6H98.3L74.4,73.5H65.3Z"/><path class="cls-1" d="M127.8,27.2c-2.2-3.2-6.2-4.7-10.3-4.7-4.8,0-9.7,2.2-9.7,7.6,0,11.8,28,5.1,28,26.1,0,12.7-10,18.8-21.6,18.8-7.3,0-14.5-2.2-19.3-8l7.9-7.7a14,14,0,0,0,11.7,6.2c4.8,0,10.3-2.7,10.3-8.1,0-12.9-28-5.5-28-26.5,0-12.2,10.8-17.8,21.7-17.8,6.2,0,12.3,1.7,16.9,6.1Z"/><rect class="cls-1" x="161.8" width="1.9" height="89"/><path class="cls-1" d="M193.7,35.1a5.5,5.5,0,0,0,2.3,2,7.17,7.17,0,0,0,2.9.6,5.08,5.08,0,0,0,1.7-.3,4.81,4.81,0,0,0,1.6-.8,4.89,4.89,0,0,0,1.2-1.3,3.42,3.42,0,0,0,.4-1.8,2.79,2.79,0,0,0-.9-2.2,6.6,6.6,0,0,0-2.2-1.2c-0.9-.3-1.9-0.7-2.9-1a10.76,10.76,0,0,1-2.9-1.3,7.68,7.68,0,0,1-2.2-2.2,7.08,7.08,0,0,1-.4-6.1,6.17,6.17,0,0,1,1.5-2.2,8.38,8.38,0,0,1,2.6-1.7,10.31,10.31,0,0,1,3.8-.7,12.09,12.09,0,0,1,3.8.6,6.87,6.87,0,0,1,3.2,2.2l-2.7,2.5a4.72,4.72,0,0,0-1.8-1.6,5.54,5.54,0,0,0-2.6-.6,5.27,5.27,0,0,0-2.3.4,9.88,9.88,0,0,0-1.5.9,4.18,4.18,0,0,0-.8,1.2,5,5,0,0,0-.2,1.2,3.24,3.24,0,0,0,.9,2.4,5.37,5.37,0,0,0,2.2,1.3,24.57,24.57,0,0,0,2.9.9,14.76,14.76,0,0,1,2.9,1.2,7,7,0,0,1,2.2,2,5.84,5.84,0,0,1,.9,3.5,6.83,6.83,0,0,1-.7,3.2,8.4,8.4,0,0,1-1.8,2.4,11.74,11.74,0,0,1-2.7,1.5,11.42,11.42,0,0,1-3.3.5,13.3,13.3,0,0,1-4.5-.8,8,8,0,0,1-3.4-2.6Z"/><path class="cls-1" d="M209.2,32a8,8,0,0,1,.7-3.4,10.15,10.15,0,0,1,1.9-2.7,9.23,9.23,0,0,1,2.8-1.9,8,8,0,0,1,3.4-.7,8.77,8.77,0,0,1,6.2,2.6,10.15,10.15,0,0,1,1.9,2.7,7.67,7.67,0,0,1,.7,3.4,8,8,0,0,1-.7,3.4,6.62,6.62,0,0,1-1.9,2.7,7.5,7.5,0,0,1-2.8,1.8,8,8,0,0,1-3.4.7,7.67,7.67,0,0,1-3.4-.7,9,9,0,0,1-2.8-1.8,10.15,10.15,0,0,1-1.9-2.7A7.67,7.67,0,0,1,209.2,32Zm3.3,0a5.87,5.87,0,0,0,.4,2.3,5.44,5.44,0,0,0,1.1,1.8,5.23,5.23,0,0,0,1.7,1.2,5.38,5.38,0,0,0,2.2.4,5.09,5.09,0,0,0,2.2-.4,5.23,5.23,0,0,0,1.7-1.2,5.44,5.44,0,0,0,1.1-1.8,5.87,5.87,0,0,0,.4-2.3,5.87,5.87,0,0,0-.4-2.3,5.44,5.44,0,0,0-1.1-1.8,5.23,5.23,0,0,0-1.7-1.2,5.38,5.38,0,0,0-2.2-.4,5.09,5.09,0,0,0-2.2.4,5.23,5.23,0,0,0-1.7,1.2,5.44,5.44,0,0,0-1.1,1.8A5.87,5.87,0,0,0,212.5,32Z"/><path class="cls-1" d="M240.8,28.2a7.34,7.34,0,0,0-1.8-1.4,5.21,5.21,0,0,0-2.3-.5,4.77,4.77,0,0,0-2.2.5,4,4,0,0,0-1.6,1.3,6.92,6.92,0,0,0-1,1.9,7.8,7.8,0,0,0-.3,2.2,5.38,5.38,0,0,0,.4,2.2,5.44,5.44,0,0,0,1.1,1.8,5.23,5.23,0,0,0,1.7,1.2,5.09,5.09,0,0,0,2.2.4,4.77,4.77,0,0,0,2.2-.5,5.52,5.52,0,0,0,1.7-1.4l2.2,2.2a6.66,6.66,0,0,1-2.8,1.9,9.74,9.74,0,0,1-3.4.6,9.89,9.89,0,0,1-3.5-.6,8.28,8.28,0,0,1-2.7-1.7,7.52,7.52,0,0,1-1.8-2.7,8.08,8.08,0,0,1-.6-3.5,9.89,9.89,0,0,1,.6-3.5,7.34,7.34,0,0,1,1.7-2.7,7.12,7.12,0,0,1,2.7-1.8,9.51,9.51,0,0,1,3.5-.6,9.74,9.74,0,0,1,3.4.6,8,8,0,0,1,2.9,2Z"/><path class="cls-1" d="M245.9,18a2,2,0,0,1,.7-1.6,2.57,2.57,0,0,1,1.6-.7,2,2,0,0,1,1.6.7,2.13,2.13,0,0,1,.7,1.6,2,2,0,0,1-.7,1.6,2.18,2.18,0,0,1-3.2,0A2.13,2.13,0,0,1,245.9,18Zm0.7,5.8h3.1V40.2h-3.1V23.8Z"/><path class="cls-1" d="M256.3,33.2a4.55,4.55,0,0,0,.5,2,4.43,4.43,0,0,0,1.2,1.5,5.76,5.76,0,0,0,3.9,1.3,4.09,4.09,0,0,0,2.5-.7,8.37,8.37,0,0,0,2-1.8l2.4,1.8a8.84,8.84,0,0,1-7.3,3.4A7.82,7.82,0,0,1,258,40a9.8,9.8,0,0,1-2.7-1.8,9.48,9.48,0,0,1-1.7-2.7,9.93,9.93,0,0,1,0-6.8,7.12,7.12,0,0,1,1.8-2.7,6.43,6.43,0,0,1,2.7-1.8,9.37,9.37,0,0,1,3.4-.7,7.48,7.48,0,0,1,7.6,5.6,11.48,11.48,0,0,1,.4,3.1v1.1H256.3V33.2Zm9.8-2.5a5.82,5.82,0,0,0-.3-1.9,3.77,3.77,0,0,0-.9-1.5,4,4,0,0,0-1.5-1,6.54,6.54,0,0,0-2.1-.4,4.64,4.64,0,0,0-2.1.4,6.45,6.45,0,0,0-1.6,1.1,6.53,6.53,0,0,0-1,1.5,4.71,4.71,0,0,0-.4,1.7h9.9v0.1Z"/><path class="cls-1" d="M281.2,26.5h-4.5v8.9a2.38,2.38,0,0,0,.3,1.2,5.49,5.49,0,0,0,.7.9,2.65,2.65,0,0,0,1.4.3,3.75,3.75,0,0,0,1.1-.1,4.87,4.87,0,0,0,1.1-.4v2.8a2.89,2.89,0,0,1-1.4.4,7.6,7.6,0,0,1-1.4.1,7,7,0,0,1-2.8-.5,3.84,3.84,0,0,1-1.5-1.3,3.51,3.51,0,0,1-.6-1.8,13.4,13.4,0,0,1-.1-2V26.5H270V23.8h3.6V19.2h3.1v4.6h4.5v2.7Z"/><path class="cls-1" d="M284.6,23.8h3.6l4.9,12.8h0.1l4.7-12.8h3.3l-7.8,19.9c-0.3.7-.6,1.4-0.9,2a5.83,5.83,0,0,1-1.1,1.5,5.6,5.6,0,0,1-1.5,1,4.89,4.89,0,0,1-2.2.3,6.6,6.6,0,0,1-1.4-.1,7.37,7.37,0,0,1-1.4-.4l0.4-2.8a4.06,4.06,0,0,0,1.9.4,3.73,3.73,0,0,0,1.2-.2,2.36,2.36,0,0,0,.9-0.6,4.17,4.17,0,0,0,.6-0.8,11.73,11.73,0,0,0,.5-1.1l1-2.6Z"/><path class="cls-1" d="M314.5,26.5H311V23.8h3.5V20.1a7.55,7.55,0,0,1,1.3-4.9c0.8-1.1,2.3-1.6,4.3-1.6h1.1a5,5,0,0,1,1.2.2l-0.3,2.8a2.92,2.92,0,0,0-.9-0.2c-0.3,0-.6-0.1-0.9-0.1a2.9,2.9,0,0,0-1.4.3,2.7,2.7,0,0,0-.8.7,3.37,3.37,0,0,0-.4,1.2,7.57,7.57,0,0,0-.1,1.5v3.8h3.7v2.7h-3.7V40.2h-3.1V26.5h0Z"/><path class="cls-1" d="M322.6,32a8,8,0,0,1,.7-3.4,10.15,10.15,0,0,1,1.9-2.7A9.23,9.23,0,0,1,328,24a8,8,0,0,1,3.4-.7,8.77,8.77,0,0,1,6.2,2.6,10.15,10.15,0,0,1,1.9,2.7,7.67,7.67,0,0,1,.7,3.4,8,8,0,0,1-.7,3.4,6.62,6.62,0,0,1-1.9,2.7,7.5,7.5,0,0,1-2.8,1.8,8,8,0,0,1-3.4.7,7.67,7.67,0,0,1-3.4-.7,9,9,0,0,1-2.8-1.8,10.15,10.15,0,0,1-1.9-2.7A7.67,7.67,0,0,1,322.6,32Zm3.3,0a5.87,5.87,0,0,0,.4,2.3,5.44,5.44,0,0,0,1.1,1.8,5.23,5.23,0,0,0,1.7,1.2,5.38,5.38,0,0,0,2.2.4,5.09,5.09,0,0,0,2.2-.4,5.23,5.23,0,0,0,1.7-1.2,5.44,5.44,0,0,0,1.1-1.8,5.87,5.87,0,0,0,.4-2.3,5.87,5.87,0,0,0-.4-2.3,5.44,5.44,0,0,0-1.1-1.8,5.23,5.23,0,0,0-1.7-1.2,5.38,5.38,0,0,0-2.2-.4,5.09,5.09,0,0,0-2.2.4,5.23,5.23,0,0,0-1.7,1.2,5.44,5.44,0,0,0-1.1,1.8A5.87,5.87,0,0,0,325.9,32Z"/><path class="cls-1" d="M342.5,23.8h3.1v2.5h0.1a8.34,8.34,0,0,1,.8-1.2,2.73,2.73,0,0,1,1.2-.9,3.51,3.51,0,0,1,1.4-.6,7.72,7.72,0,0,1,1.5-.2,5.9,5.9,0,0,1,1.4.2L351.9,27c-0.3-.1-0.5-0.1-0.8-0.2s-0.5-.1-0.8-0.1a4.46,4.46,0,0,0-3.5,1.3,5.8,5.8,0,0,0-1.2,4v8.2h-3.1V23.8Z"/><path class="cls-1" d="M188.2,49.7H192l7.2,19.9h0.1l7.5-19.9h3.6l-9.7,24.5h-3.1Z"/><path class="cls-1" d="M210.7,59.8a9.23,9.23,0,0,1,3-1.8,10.3,10.3,0,0,1,3.5-.6,13.74,13.74,0,0,1,3.1.4,5.28,5.28,0,0,1,2.1,1.2,3.82,3.82,0,0,1,1.2,1.7,4.92,4.92,0,0,1,.4,2.1v10c0,0.5.1,0.9,0.1,1.4h-2.8a20.9,20.9,0,0,1-.1-2.5h-0.1a5.23,5.23,0,0,1-2.5,2.2,8,8,0,0,1-3.3.7,7.8,7.8,0,0,1-2.2-.3,5.08,5.08,0,0,1-1.8-.9,4.43,4.43,0,0,1-1.2-1.5,4.65,4.65,0,0,1-.5-2.1,4.73,4.73,0,0,1,.7-2.7,5.19,5.19,0,0,1,1.9-1.7,8.28,8.28,0,0,1,2.9-1,19.83,19.83,0,0,1,3.5-.3h2.3V63.4a5,5,0,0,0-.2-1.2,4.13,4.13,0,0,0-.7-1.1,3.6,3.6,0,0,0-1.2-.8,4.67,4.67,0,0,0-1.7-.3,7.77,7.77,0,0,0-1.6.2c-0.4.1-.9,0.3-1.2,0.4a8.8,8.8,0,0,0-1,.6,5.49,5.49,0,0,0-.9.7Zm8.8,6.5a18.48,18.48,0,0,0-2.3.1,6.48,6.48,0,0,0-2.1.5,4.35,4.35,0,0,0-1.6,1,2.47,2.47,0,0,0,.4,3.6,4.76,4.76,0,0,0,2.6.6,4.81,4.81,0,0,0,2.2-.4,5.83,5.83,0,0,0,1.5-1.1,5.48,5.48,0,0,0,.8-1.5,5,5,0,0,0,.2-1.7v-1h-1.7V66.3Z"/><path class="cls-1" d="M235.9,62a5.53,5.53,0,0,0-1.4-1.2,3.32,3.32,0,0,0-2-.5,3.83,3.83,0,0,0-1.9.5,1.6,1.6,0,0,0-.8,1.4,1.66,1.66,0,0,0,.5,1.2,4.13,4.13,0,0,0,1.1.7,5.73,5.73,0,0,0,1.4.4,7.38,7.38,0,0,0,1.2.2c0.7,0.2,1.3.4,1.9,0.6a3.77,3.77,0,0,1,1.5.9,4.12,4.12,0,0,1,1,1.3,5.33,5.33,0,0,1,.4,1.9,4.75,4.75,0,0,1-.6,2.4,4.63,4.63,0,0,1-1.5,1.6,6.67,6.67,0,0,1-2.1.9,9.86,9.86,0,0,1-2.4.3,9.69,9.69,0,0,1-3.6-.6,7.31,7.31,0,0,1-2.8-2.3l2.4-1.9a7,7,0,0,0,1.7,1.3,4.14,4.14,0,0,0,2.3.6,4.87,4.87,0,0,0,1.2-.1,3.58,3.58,0,0,0,1.1-.4,2.7,2.7,0,0,0,.8-0.7,1.61,1.61,0,0,0,.3-0.9,1.37,1.37,0,0,0-.4-1.1,3.59,3.59,0,0,0-1-.7,5,5,0,0,0-1.3-.4l-1.2-.3a10.56,10.56,0,0,1-1.9-.6,8,8,0,0,1-1.6-.8,3.48,3.48,0,0,1-1.1-1.3,4,4,0,0,1-.4-2,4.77,4.77,0,0,1,.5-2.2,5.39,5.39,0,0,1,1.4-1.6,7.22,7.22,0,0,1,2-.9,9.08,9.08,0,0,1,2.3-.3,8.66,8.66,0,0,1,3.2.6,4.87,4.87,0,0,1,2.4,2.1Z"/><path class="cls-1" d="M253.5,62.2a7.34,7.34,0,0,0-1.8-1.4,5.21,5.21,0,0,0-2.3-.5,4.77,4.77,0,0,0-2.2.5,4,4,0,0,0-1.6,1.3,6.92,6.92,0,0,0-1,1.9,7.8,7.8,0,0,0-.3,2.2,5.38,5.38,0,0,0,.4,2.2,5.44,5.44,0,0,0,1.1,1.8,5.23,5.23,0,0,0,1.7,1.2,5.09,5.09,0,0,0,2.2.4,4.77,4.77,0,0,0,2.2-.5,5.52,5.52,0,0,0,1.7-1.4l2.2,2.2A6.66,6.66,0,0,1,253,74a9.74,9.74,0,0,1-3.4.6,9.89,9.89,0,0,1-3.5-.6,8.28,8.28,0,0,1-2.7-1.7,7.52,7.52,0,0,1-1.8-2.7,8.08,8.08,0,0,1-.6-3.5,9.89,9.89,0,0,1,.6-3.5,7.34,7.34,0,0,1,1.7-2.7,7.12,7.12,0,0,1,2.7-1.8,9.51,9.51,0,0,1,3.5-.6,9.74,9.74,0,0,1,3.4.6,8,8,0,0,1,2.9,2Z"/><path class="cls-1" d="M272.9,74.2h-3.1V71.7h-0.1a4.51,4.51,0,0,1-2,2.1,7.42,7.42,0,0,1-3.4.8,5.87,5.87,0,0,1-2.3-.4,5.24,5.24,0,0,1-1.9-1.1,5.78,5.78,0,0,1-1.3-2,7.78,7.78,0,0,1-.5-2.8V57.8h3.1v9.7a6,6,0,0,0,.3,2,4.11,4.11,0,0,0,.8,1.3,2.4,2.4,0,0,0,1.2.7,3.18,3.18,0,0,0,1.4.2,5.66,5.66,0,0,0,1.8-.3,3.6,3.6,0,0,0,1.5-1,5.45,5.45,0,0,0,1-1.7,9,9,0,0,0,.3-2.5V57.8h3.1V74.2h0.1Z"/><path class="cls-1" d="M276.4,48.1h3.1V74.3h-3.1V48.1Z"/><path class="cls-1" d="M283,59.8a9.23,9.23,0,0,1,3-1.8,10.3,10.3,0,0,1,3.5-.6,13.74,13.74,0,0,1,3.1.4,5.28,5.28,0,0,1,2.1,1.2,3.82,3.82,0,0,1,1.2,1.7,4.92,4.92,0,0,1,.4,2.1v10c0,0.5.1,0.9,0.1,1.4h-2.8a20.9,20.9,0,0,1-.1-2.5h-0.1a5.23,5.23,0,0,1-2.5,2.2,8,8,0,0,1-3.3.7,7.8,7.8,0,0,1-2.2-.3,5.08,5.08,0,0,1-1.8-.9,4.43,4.43,0,0,1-1.2-1.5,4.65,4.65,0,0,1-.5-2.1,4.73,4.73,0,0,1,.7-2.7,5.19,5.19,0,0,1,1.9-1.7,8.28,8.28,0,0,1,2.9-1,19.83,19.83,0,0,1,3.5-.3h2.3V63.4a5,5,0,0,0-.2-1.2,4.13,4.13,0,0,0-.7-1.1,3.6,3.6,0,0,0-1.2-.8,4.67,4.67,0,0,0-1.7-.3,7.77,7.77,0,0,0-1.6.2c-0.4.1-.9,0.3-1.2,0.4a8.79,8.79,0,0,0-1,.6,5.5,5.5,0,0,0-.9.7Zm8.8,6.5a18.48,18.48,0,0,0-2.3.1,6.48,6.48,0,0,0-2.1.5,4.35,4.35,0,0,0-1.6,1,2.47,2.47,0,0,0,.4,3.6,4.76,4.76,0,0,0,2.6.6,4.81,4.81,0,0,0,2.2-.4,5.83,5.83,0,0,0,1.5-1.1,5.48,5.48,0,0,0,.8-1.5,5,5,0,0,0,.2-1.7v-1h-1.7V66.3Z"/><path class="cls-1" d="M299.5,57.8h3.1v2.5h0.1a8.34,8.34,0,0,1,.8-1.2,2.73,2.73,0,0,1,1.2-.9,3.51,3.51,0,0,1,1.4-.6,7.72,7.72,0,0,1,1.5-.2,5.9,5.9,0,0,1,1.4.2L308.9,61c-0.3-.1-0.5-0.1-0.8-0.2s-0.5-.1-0.8-0.1a4.46,4.46,0,0,0-3.5,1.3,5.8,5.8,0,0,0-1.2,4v8.2h-3.1V57.8Z"/><path class="cls-1" d="M325.4,69.1a5.5,5.5,0,0,0,2.3,2,7.17,7.17,0,0,0,2.9.6,5.08,5.08,0,0,0,1.7-.3,4.81,4.81,0,0,0,1.6-.8,4.89,4.89,0,0,0,1.2-1.3,3.42,3.42,0,0,0,.4-1.8,2.79,2.79,0,0,0-.9-2.2,6.6,6.6,0,0,0-2.2-1.2c-0.9-.3-1.9-0.7-2.9-1a10.76,10.76,0,0,1-2.9-1.3,7.69,7.69,0,0,1-2.2-2.2,7.08,7.08,0,0,1-.4-6.1,6.17,6.17,0,0,1,1.5-2.2,8.38,8.38,0,0,1,2.6-1.7,10.31,10.31,0,0,1,3.8-.7,12.09,12.09,0,0,1,3.8.6,6.87,6.87,0,0,1,3.2,2.2l-2.7,2.5a4.72,4.72,0,0,0-1.8-1.6,5.54,5.54,0,0,0-2.6-.6,5.27,5.27,0,0,0-2.3.4,9.88,9.88,0,0,0-1.5.9,4.18,4.18,0,0,0-.8,1.2,5,5,0,0,0-.2,1.2,3.24,3.24,0,0,0,.9,2.4,5.37,5.37,0,0,0,2.2,1.3,24.57,24.57,0,0,0,2.9.9,14.76,14.76,0,0,1,2.9,1.2,7,7,0,0,1,2.2,2A5.84,5.84,0,0,1,339,67a6.83,6.83,0,0,1-.7,3.2,8.4,8.4,0,0,1-1.8,2.4,11.74,11.74,0,0,1-2.7,1.5,11.42,11.42,0,0,1-3.3.5,13.3,13.3,0,0,1-4.5-.8,8,8,0,0,1-3.4-2.6Z"/><path class="cls-1" d="M356.2,74.2H353V71.7h0a4.51,4.51,0,0,1-2,2.1,7.42,7.42,0,0,1-3.4.8,5.87,5.87,0,0,1-2.3-.4,5.24,5.24,0,0,1-1.9-1.1,5.78,5.78,0,0,1-1.3-2,7.78,7.78,0,0,1-.5-2.8V57.8h3.1v9.7a6,6,0,0,0,.3,2,4.11,4.11,0,0,0,.8,1.3,2.4,2.4,0,0,0,1.2.7,3.18,3.18,0,0,0,1.4.2,5.66,5.66,0,0,0,1.8-.3,3.6,3.6,0,0,0,1.5-1,5.45,5.45,0,0,0,1-1.7,9,9,0,0,0,.3-2.5V57.8h3.1V74.2h0.1Z"/><path class="cls-1" d="M358.7,57.8h3.1v2.5h0.1a8.34,8.34,0,0,1,.8-1.2,2.73,2.73,0,0,1,1.2-.9,3.51,3.51,0,0,1,1.4-.6,7.72,7.72,0,0,1,1.5-.2,5.9,5.9,0,0,1,1.4.2L368.1,61c-0.3-.1-0.5-0.1-0.8-0.2s-0.5-.1-0.8-0.1A4.46,4.46,0,0,0,363,62a5.8,5.8,0,0,0-1.2,4v8.2h-3.1V57.8Z"/><path class="cls-1" d="M386.6,74.1a9.34,9.34,0,0,1-.6,3.4,8,8,0,0,1-1.8,2.7,7.28,7.28,0,0,1-2.8,1.7,10.64,10.64,0,0,1-3.7.6,11.76,11.76,0,0,1-4.3-.7,9.87,9.87,0,0,1-3.7-2.3l2.1-2.6a9.55,9.55,0,0,0,2.6,2,6.57,6.57,0,0,0,3.2.7,8,8,0,0,0,2.9-.5,4.2,4.2,0,0,0,1.8-1.3,4,4,0,0,0,1-1.8,7.61,7.61,0,0,0,.3-2.1V71.5h-0.1a5.65,5.65,0,0,1-2.4,2.2,7.11,7.11,0,0,1-3.2.7,8.81,8.81,0,0,1-3.3-.6A6.77,6.77,0,0,1,372,72a7.34,7.34,0,0,1-1.7-2.7,9.19,9.19,0,0,1-.6-3.3,9.74,9.74,0,0,1,.6-3.4,10,10,0,0,1,1.7-2.8,6.77,6.77,0,0,1,2.6-1.8,9.37,9.37,0,0,1,3.4-.7,7.11,7.11,0,0,1,5.7,2.7h0.1V57.6h3.1V74.1h-0.3Zm-8.5-13.8a5.09,5.09,0,0,0-2.2.4,5.23,5.23,0,0,0-1.7,1.2,5.44,5.44,0,0,0-1.1,1.8,5.87,5.87,0,0,0-.4,2.3,5.35,5.35,0,0,0,1.5,4,5.28,5.28,0,0,0,3.9,1.5A5,5,0,0,0,382,70a5.35,5.35,0,0,0,1.5-4,5.87,5.87,0,0,0-.4-2.3,5.44,5.44,0,0,0-1.1-1.8,5.23,5.23,0,0,0-1.7-1.2A7.8,7.8,0,0,0,378.1,60.3Z"/><path class="cls-1" d="M392.2,67.2a4.55,4.55,0,0,0,.5,2,4.43,4.43,0,0,0,1.2,1.5,5.76,5.76,0,0,0,3.9,1.3,4.09,4.09,0,0,0,2.5-.7,8.37,8.37,0,0,0,2-1.8l2.4,1.8a8.84,8.84,0,0,1-7.3,3.4,7.82,7.82,0,0,1-3.5-.7,9.8,9.8,0,0,1-2.7-1.8,9.48,9.48,0,0,1-1.7-2.7,9.93,9.93,0,0,1,0-6.8,7.12,7.12,0,0,1,1.8-2.7,6.43,6.43,0,0,1,2.7-1.8,9.37,9.37,0,0,1,3.4-.7,7.48,7.48,0,0,1,7.6,5.6,11.48,11.48,0,0,1,.4,3.1v1.1H392.2V67.2Zm9.8-2.5a5.82,5.82,0,0,0-.3-1.9,3.77,3.77,0,0,0-.9-1.5,4,4,0,0,0-1.5-1,6.54,6.54,0,0,0-2.1-.4,4.64,4.64,0,0,0-2.1.4,6.45,6.45,0,0,0-1.6,1.1,6.53,6.53,0,0,0-1,1.5,4.71,4.71,0,0,0-.4,1.7H402v0.1Z"/><path class="cls-1" d="M408.3,57.8h3.1v2.5h0.1a8.34,8.34,0,0,1,.8-1.2,2.73,2.73,0,0,1,1.2-.9,3.51,3.51,0,0,1,1.4-.6,7.72,7.72,0,0,1,1.5-.2,5.9,5.9,0,0,1,1.4.2L417.7,61c-0.3-.1-0.5-0.1-0.8-0.2s-0.5-.1-0.8-0.1a4.46,4.46,0,0,0-3.5,1.3,5.8,5.8,0,0,0-1.2,4v8.2h-3.1V57.8Z"/><path class="cls-1" d="M419.1,57.8h3.6l4.9,12.8h0.1l4.7-12.8h3.3l-7.8,19.9c-0.3.7-.6,1.4-0.9,2a5.83,5.83,0,0,1-1.1,1.5,5.6,5.6,0,0,1-1.5,1,4.89,4.89,0,0,1-2.2.3,6.6,6.6,0,0,1-1.4-.1,7.37,7.37,0,0,1-1.4-.4l0.4-2.8a4.06,4.06,0,0,0,1.9.4,3.73,3.73,0,0,0,1.2-.2,2.36,2.36,0,0,0,.9-0.6,4.17,4.17,0,0,0,.6-0.8,11.73,11.73,0,0,0,.5-1.1l1-2.6Z"/></svg>